<?xml version="1.0" standalone="no"?>
<!DOCTYPE svg PUBLIC "-//W3C//DTD SVG 20010904//EN"
 "http://www.w3.org/TR/2001/REC-SVG-20010904/DTD/svg10.dtd">
<svg version="1.0" xmlns="http://www.w3.org/2000/svg"
 width="900.000000pt" height="900.000000pt" viewBox="0 0 900.000000 900.000000"
 preserveAspectRatio="xMidYMid meet">

<g transform="translate(0.000000,900.000000) scale(0.100000,-0.100000)"
fill="#000000" stroke="none">
<path d="M132 8870 c-10 -11 -24 -38 -30 -59 -9 -29 -12 -1134 -12 -4370 l0
-4331 4384 0 4384 0 24 37 23 38 3 4353 2 4352 -4380 0 -4379 0 -19 -20z
m8378 -4370 l0 -3990 -4010 0 -4010 0 0 3990 0 3990 4010 0 4010 0 0 -3990z"/>
<path d="M4797 7644 c-153 -34 -252 -90 -377 -213 -81 -80 -90 -93 -135 -196
-26 -60 -51 -121 -55 -135 -4 -14 -143 -338 -309 -721 -165 -383 -301 -700
-301 -703 0 -3 17 -6 38 -6 33 0 45 8 95 58 51 52 58 64 61 104 4 74 31 101
133 133 l88 27 209 481 c115 265 217 491 227 502 9 11 37 64 62 117 72 156
163 237 306 274 35 8 64 14 66 12 1 -2 -132 -315 -296 -696 l-299 -692 2 -309
3 -308 420 973 c231 536 423 974 427 974 16 0 121 -107 145 -147 81 -139 83
-272 5 -448 -17 -38 -110 -252 -206 -475 -95 -223 -327 -760 -515 -1193 l-341
-789 -7 -335 c-5 -277 -4 -335 7 -331 7 2 48 85 91 184 43 98 188 431 322 739
l244 560 -41 36 -41 37 -3 158 c-3 147 -2 162 19 206 12 26 26 48 31 48 4 0 8
8 8 18 0 9 8 27 18 40 15 20 30 24 94 29 42 3 82 9 88 13 8 5 14 60 17 161 l6
155 36 41 c35 41 38 42 120 50 l83 8 125 285 c69 157 136 321 149 365 79 261
12 529 -181 720 -84 83 -155 127 -271 167 -107 37 -260 46 -367 22z"/>
<path d="M5355 5990 c-90 -10 -129 -35 -146 -92 -5 -18 -9 -97 -9 -175 l0
-142 -32 -5 c-18 -3 -71 -8 -118 -11 -72 -5 -88 -9 -103 -28 -31 -38 -38 -69
-39 -162 -1 -134 7 -169 48 -200 30 -23 46 -27 139 -32 l105 -6 2 -201 c5
-396 10 -359 -72 -531 -153 -319 -171 -358 -181 -403 -11 -51 -4 -126 14 -150
56 -71 124 -110 173 -98 13 4 36 25 51 49 52 81 213 371 213 384 0 24 19 13
36 -19 9 -17 64 -96 121 -175 91 -123 109 -143 131 -142 71 2 116 40 163 138
32 66 24 151 -19 211 -18 25 -68 99 -112 165 -43 66 -101 152 -128 191 l-50
72 -3 270 c-2 149 -2 273 1 276 3 2 46 8 95 11 146 10 195 47 205 157 3 33 2
93 -2 132 -8 59 -13 75 -36 93 -36 30 -78 37 -177 29 l-83 -7 -4 163 c-3 140
-6 167 -22 191 -30 44 -74 57 -161 47z"/>
<path d="M1181 5894 c-40 -14 -60 -31 -108 -88 -20 -24 -26 -133 -13 -256 7
-63 14 -167 17 -231 l5 -116 -45 -69 c-61 -92 -105 -157 -115 -170 -5 -5 -15
-21 -22 -34 -7 -13 -17 -29 -22 -34 -40 -49 -48 -60 -48 -67 0 -4 -6 -14 -12
-21 -23 -24 -55 -73 -78 -118 -32 -62 -33 -162 -2 -210 29 -46 58 -73 109 -99
40 -20 44 -20 83 -5 22 9 40 20 40 25 0 4 11 18 24 31 22 21 195 235 241 297
11 15 32 42 48 60 l27 33 53 -40 c28 -22 111 -81 182 -131 72 -50 139 -98 150
-106 26 -20 65 -30 74 -19 3 5 15 14 26 20 35 19 86 137 92 214 3 37 3 78 0
91 -7 27 -128 159 -145 159 -6 0 -24 12 -40 28 -16 15 -50 45 -76 67 -27 22
-54 45 -60 50 -6 6 -32 27 -57 48 l-46 37 -8 292 c-8 323 -9 327 -74 354 -56
23 -148 27 -200 8z"/>
<path d="M2965 5805 c-315 -15 -335 -19 -335 -75 0 -16 -5 -30 -11 -32 -6 -2
-10 -43 -10 -108 0 -125 21 -184 68 -194 16 -3 139 -8 274 -12 l247 -7 6 -45
c3 -24 6 -75 6 -113 l0 -68 -67 -20 c-38 -10 -160 -44 -272 -75 -112 -31 -210
-61 -218 -68 -38 -31 -41 -91 -23 -475 8 -160 12 -198 29 -231 21 -41 49 -64
90 -75 26 -6 641 73 762 98 128 27 149 48 149 147 0 74 -24 136 -59 149 -17 7
-96 6 -236 -2 -255 -14 -386 -16 -402 -6 -8 5 -13 32 -13 71 l0 63 63 13 c142
28 424 91 454 101 18 6 43 24 55 41 21 30 22 44 26 251 6 320 -6 667 -24 667
-8 0 -14 5 -14 10 0 13 -201 11 -545 -5z"/>
<path d="M2125 5796 c-60 -23 -72 -44 -80 -140 -9 -107 -1 -1075 9 -1098 12
-27 74 -70 115 -79 70 -16 155 29 181 96 17 44 27 1088 11 1136 -20 62 -58 89
-132 94 -43 4 -77 1 -104 -9z"/>
<path d="M3947 5796 c-68 -25 -83 -57 -90 -191 l-2 -50 -79 -8 c-44 -4 -94
-15 -113 -23 -44 -21 -57 -70 -50 -192 6 -126 17 -138 142 -153 50 -6 94 -16
98 -23 8 -11 3 -114 -6 -123 -3 -2 -41 -13 -86 -23 -46 -11 -91 -25 -102 -30
-35 -19 -51 -77 -46 -167 7 -125 30 -146 168 -158 l77 -7 4 -146 c4 -155 12
-187 60 -232 17 -16 35 -20 90 -20 97 0 128 20 161 103 20 50 21 72 25 694 l4
643 -22 44 c-13 24 -34 49 -48 55 -41 19 -142 23 -185 7z"/>
<path d="M6056 5803 c-34 -9 -96 -53 -96 -67 0 -8 -4 -16 -10 -18 -5 -2 -12
-139 -17 -333 l-8 -329 -79 -12 c-159 -25 -181 -50 -179 -209 1 -97 9 -124 45
-169 22 -26 30 -28 123 -35 l99 -6 3 -425 c3 -458 16 -621 51 -649 32 -25 85
-42 109 -36 43 10 85 48 105 95 18 40 21 80 28 355 21 734 31 1402 25 1555 -6
150 -9 169 -31 208 -14 23 -35 49 -47 57 -25 16 -92 26 -121 18z"/>
<path d="M6435 5801 c-20 -9 -59 -56 -83 -101 -12 -20 -14 -214 -15 -1075 -2
-1032 -2 -1051 18 -1090 24 -47 94 -82 140 -71 86 22 111 110 125 446 5 140
15 338 22 440 6 102 12 445 12 765 1 544 0 583 -18 622 -10 23 -29 46 -45 53
-34 16 -130 23 -156 11z"/>
<path d="M7190 5708 c-210 -8 -271 -17 -298 -44 -20 -20 -34 -130 -26 -204 7
-65 32 -132 56 -146 7 -5 224 -11 483 -14 l470 -5 7 -70 c4 -38 4 -127 1 -196
l-6 -126 -146 -12 c-543 -44 -621 -51 -698 -63 -55 -9 -74 -16 -79 -30 -3 -10
-13 -25 -22 -35 -22 -22 -24 -201 -2 -253 30 -73 15 -71 365 -51 99 6 269 16
378 22 109 6 201 9 203 6 3 -3 8 -74 11 -159 4 -124 9 -160 24 -192 33 -64 45
-71 120 -71 74 0 113 19 135 66 22 46 44 387 61 931 12 405 14 554 5 570 -6
13 -14 33 -17 46 -4 13 -18 27 -32 33 -29 11 -686 9 -993 -3z"/>
<path d="M1865 4405 c-115 -8 -282 -19 -370 -25 -88 -6 -193 -10 -232 -10 -40
0 -73 -3 -73 -8 0 -4 -10 -12 -22 -17 -40 -18 -49 -51 -45 -162 3 -75 8 -105
19 -117 9 -9 18 -21 20 -27 3 -9 75 -9 304 0 164 6 349 9 411 5 106 -7 111 -8
116 -30 2 -13 2 -35 0 -48 -6 -30 6 -29 -418 -51 -170 -9 -324 -18 -342 -21
-60 -9 -63 -18 -62 -202 0 -92 4 -227 8 -299 11 -192 19 -198 256 -208 214 -9
802 21 857 43 36 15 48 41 55 120 6 81 -9 147 -39 163 -14 7 -147 13 -399 17
l-377 5 -5 36 c-2 20 -3 38 -1 40 2 2 95 10 206 17 468 32 523 37 538 46 32
21 41 73 51 308 12 272 6 391 -20 414 -26 23 -186 27 -436 11z"/>
<path d="M3920 4169 c-19 -5 -102 -11 -185 -14 -318 -9 -642 -26 -694 -37
-112 -21 -126 -42 -126 -188 0 -115 13 -141 83 -171 46 -20 53 -20 427 -7 209
8 384 10 390 6 5 -4 12 -118 16 -252 5 -173 11 -252 20 -272 16 -31 119 -77
154 -68 53 15 74 31 95 73 21 43 24 75 41 446 20 426 19 458 -24 474 -37 14
-160 20 -197 10z"/>
<path d="M7760 3930 c-80 -4 -291 -13 -470 -19 -185 -7 -336 -17 -351 -23 -23
-10 -36 -26 -77 -98 -21 -36 -19 -153 2 -217 29 -84 43 -87 321 -80 278 8 563
35 950 92 90 14 103 18 127 46 31 35 44 110 34 196 -8 68 -20 91 -52 103 -28
11 -260 11 -484 0z"/>
<path d="M2796 3778 c-8 -18 -98 -226 -200 -462 -102 -236 -184 -431 -183
-433 2 -2 210 -2 463 -1 455 3 459 3 424 22 -19 10 -36 20 -38 21 -2 1 64 158
147 349 l149 346 -114 2 c-63 1 -123 2 -135 2 -18 1 -39 -41 -150 -299 -71
-165 -129 -306 -129 -312 0 -10 -28 -13 -107 -13 -60 0 -126 -5 -148 -10 -22
-5 -41 -7 -44 -5 -2 3 62 154 142 337 118 270 143 335 131 343 -7 6 -36 26
-65 45 -28 19 -61 46 -73 58 -40 45 -55 47 -70 10z"/>
<path d="M3755 3128 c-7 -18 -34 -80 -59 -138 l-45 -105 67 -6 67 -5 -70 -2
-70 -2 -43 -100 -43 -99 -50 60 c-28 32 -73 77 -100 99 l-51 40 -477 0 -478 0
-42 -96 c-23 -52 -53 -124 -66 -159 l-24 -64 -1 -777 c-1 -747 -1 -778 17
-803 11 -14 36 -34 56 -44 53 -27 98 -15 156 42 52 51 563 547 851 825 l185
179 78 156 c57 117 272 597 324 728 3 9 -16 13 -69 16 l-73 3 76 2 76 2 32 71
c17 40 31 77 31 84 0 10 -218 125 -237 125 -2 0 -10 -15 -18 -32z m-679 -394
c101 -40 155 -74 214 -134 58 -58 130 -181 130 -221 0 -13 -23 -80 -52 -147
l-52 -124 -175 -168 -174 -169 -27 42 c-35 54 -97 110 -157 140 -53 27 -173
57 -227 57 l-36 0 0 253 c0 247 1 253 25 305 28 61 47 79 130 123 132 72 288
88 401 43z"/>
</g>
</svg>
