<?xml version="1.0" standalone="no"?>
<!DOCTYPE svg PUBLIC "-//W3C//DTD SVG 20010904//EN"
 "http://www.w3.org/TR/2001/REC-SVG-20010904/DTD/svg10.dtd">
<svg version="1.0" xmlns="http://www.w3.org/2000/svg"
 width="4266.000000pt" height="4266.000000pt" viewBox="0 0 4266.000000 4266.000000"
 preserveAspectRatio="xMidYMid meet">

<g transform="translate(0.000000,4266.000000) scale(0.100000,-0.100000)"
fill="#000000" stroke="none">
<path d="M28815 42023 c-10545 -4 -26439 -24 -26800 -33 -203 -5 -419 -12
-480 -15 l-110 -7 -58 -98 c-66 -112 -81 -171 -91 -365 -48 -909 -56 -4134
-56 -23067 l0 -16488 20015 0 20015 0 65 129 c77 154 79 167 100 491 36 557
44 5209 45 23483 l0 15977 -3742 -2 c-2059 -2 -6065 -4 -8903 -5z m10825
-20058 l0 -18195 -18300 0 -18300 0 0 18195 0 18195 18300 0 18300 0 0 -18195z"/>
<path d="M26394 36469 c-71 -9 -134 -38 -255 -120 -89 -60 -121 -95 -198 -222
-69 -114 -283 -515 -561 -1052 -45 -88 -113 -218 -150 -290 -37 -71 -107 -206
-155 -300 -48 -93 -122 -237 -165 -320 -43 -82 -115 -222 -160 -310 -46 -88
-113 -218 -150 -290 -37 -71 -113 -220 -170 -330 -190 -370 -291 -566 -690
-1340 -316 -613 -442 -856 -610 -1180 -163 -313 -202 -389 -280 -540 -46 -88
-127 -243 -180 -345 -53 -102 -130 -248 -170 -325 -40 -77 -106 -203 -146
-281 -41 -78 -74 -144 -74 -148 0 -3 348 -6 774 -6 l775 0 127 248 c70 136
168 328 219 427 51 99 143 279 205 400 115 225 241 470 360 700 37 72 109 211
160 310 51 99 121 234 155 300 34 66 97 188 140 270 43 83 122 233 175 335
185 352 406 780 690 1335 258 506 595 1160 708 1378 30 58 51 87 63 87 16 0
921 -449 1354 -673 712 -367 1040 -541 1051 -558 24 -40 -423 -950 -1301
-2649 -161 -311 -340 -659 -400 -775 -59 -115 -142 -277 -185 -360 -309 -599
-360 -704 -348 -712 7 -4 353 -9 768 -11 l755 -4 47 93 c26 52 99 193 161 314
62 121 182 355 266 520 85 165 175 341 201 390 26 50 109 212 185 360 76 149
168 329 205 400 37 72 132 256 210 410 79 154 146 285 150 290 13 17 523 1034
594 1184 96 203 190 423 221 522 36 113 58 288 53 424 -4 138 -28 196 -120
292 -128 134 -307 250 -803 520 -104 57 -160 87 -415 221 -58 30 -141 74 -185
97 -44 23 -152 79 -240 125 -88 46 -214 111 -280 145 -66 34 -205 106 -310
160 -104 54 -222 115 -261 136 -119 64 -872 442 -979 491 -201 93 -242 111
-340 150 -132 53 -273 96 -338 103 -28 4 -61 8 -72 9 -11 2 -48 -1 -81 -5z"/>
<path d="M7090 29154 c-271 -19 -572 -116 -716 -232 -87 -69 -185 -239 -235
-405 -70 -236 -79 -692 -39 -1927 5 -157 12 -395 15 -530 l6 -245 -312 -345
c-1202 -1330 -1947 -2184 -2134 -2446 -51 -70 -68 -104 -82 -159 -34 -139 -27
-557 13 -748 22 -107 64 -179 167 -282 118 -119 195 -169 295 -191 124 -28
230 -5 427 91 346 168 903 569 1550 1114 296 250 492 430 845 777 247 242 394
374 451 404 31 17 97 -19 189 -104 95 -88 165 -135 340 -230 119 -65 287 -174
615 -399 361 -248 878 -557 1540 -919 467 -256 528 -274 770 -232 315 54 525
204 657 469 115 228 168 627 110 814 -29 92 -88 216 -143 301 -219 337 -806
850 -1474 1288 -276 181 -451 298 -555 373 -223 160 -335 232 -401 260 -37 16
-85 39 -106 51 -158 90 -386 229 -478 290 -98 66 -111 78 -127 119 -35 95 -40
218 -48 1159 -8 903 -14 1090 -45 1285 -41 259 -120 368 -349 479 -107 52
-204 80 -342 100 -107 16 -315 26 -404 20z"/>
<path d="M25415 28830 c-883 -16 -2701 -57 -2920 -65 -316 -13 -678 -36 -765
-50 -193 -29 -261 -63 -341 -172 -52 -70 -76 -124 -97 -221 -16 -71 -17 -194
-15 -1517 4 -2453 31 -3201 128 -3493 48 -142 152 -285 253 -346 126 -76 272
-100 692 -117 425 -16 1470 6 2645 56 187 8 401 17 475 20 147 6 789 38 1100
55 921 50 1304 101 1494 197 64 33 140 105 166 157 65 134 100 540 134 1521
28 797 32 3095 7 3365 -27 294 -56 409 -121 483 -70 79 -130 96 -415 118 -179
14 -1812 20 -2420 9z m-110 -2140 c823 -16 1256 -37 1282 -62 34 -34 67 -710
68 -1369 0 -490 -1 -518 -19 -537 -47 -53 -217 -62 -1321 -69 -1166 -7 -2172
11 -2200 38 -24 25 -49 641 -49 1239 -1 484 1 541 17 600 21 78 36 95 90 108
215 54 1012 73 2132 52z"/>
<path d="M25219 25723 c-207 -417 -383 -773 -389 -791 -11 -28 -11 -35 0 -42
29 -18 414 -22 945 -11 308 7 564 16 568 20 4 4 10 248 14 542 8 724 -7 910
-76 980 -47 46 -84 51 -396 56 l-290 5 -376 -759z"/>
<path d="M13395 28744 c-16 -2 -66 -9 -110 -15 -77 -10 -258 -65 -356 -107
-41 -18 -57 -36 -134 -146 -132 -192 -190 -335 -227 -561 -22 -134 -16 -553
10 -775 24 -202 55 -689 72 -1115 15 -414 31 -764 36 -825 35 -451 44 -532 75
-710 78 -449 211 -668 484 -795 104 -49 149 -56 390 -62 188 -5 912 9 1145 22
41 2 170 9 285 15 434 22 735 38 815 45 99 9 182 15 345 25 766 51 1890 167
2132 220 26 6 95 26 153 44 58 19 161 46 230 60 293 62 358 83 434 141 74 56
133 175 180 363 35 142 49 268 48 437 -1 316 -74 591 -182 689 -98 88 -434
137 -935 137 -256 0 -354 -6 -610 -35 -227 -27 -1033 -73 -1305 -75 -144 -2
-436 -14 -1080 -47 -597 -30 -687 -26 -719 35 -36 66 -94 665 -137 1406 -3 55
-7 118 -9 140 -2 22 -6 81 -9 130 -30 441 -39 561 -56 699 -31 241 -79 361
-195 478 -143 146 -239 178 -550 183 -104 2 -203 1 -220 -1z"/>
<path d="M35321 28688 c-35 -4 -85 -14 -111 -23 -63 -21 -246 -142 -293 -194
-136 -150 -172 -406 -197 -1366 -16 -634 -20 -755 -45 -1275 -15 -308 -31
-507 -41 -534 -10 -26 -120 -53 -372 -91 -393 -59 -434 -69 -535 -129 -26 -14
-112 -90 -192 -167 l-145 -141 0 -367 c1 -424 12 -671 35 -756 21 -77 71 -161
195 -328 l100 -135 88 -7 c48 -3 110 -8 137 -10 28 -2 109 -9 180 -15 185 -15
372 -38 430 -53 89 -22 84 32 125 -1462 6 -203 13 -431 15 -505 3 -74 9 -324
15 -555 33 -1320 77 -2384 111 -2665 12 -101 51 -181 135 -283 93 -112 311
-276 408 -307 54 -17 239 -7 339 19 164 43 224 83 292 196 103 172 174 586
210 1225 3 58 8 121 10 140 5 34 29 700 40 1100 16 554 24 1018 25 1334 0 192
2 352 4 355 3 4 9 747 15 1651 6 905 13 1816 16 2025 10 666 7 2171 -5 2429
-11 270 -21 357 -45 426 -43 124 -188 301 -296 365 -142 83 -424 128 -648 103z"/>
<path d="M37437 28670 c-93 -24 -199 -95 -317 -212 -175 -174 -207 -329 -225
-1103 -3 -137 -8 -333 -10 -435 -19 -786 -32 -1566 -57 -3425 -18 -1284 -17
-4730 0 -5090 34 -693 57 -906 118 -1066 54 -145 141 -205 404 -283 190 -57
242 -58 362 -5 248 108 406 298 473 569 30 123 36 184 65 705 10 193 22 411
25 485 3 74 12 277 20 450 17 373 18 397 50 1195 33 819 63 1637 75 2020 6
171 19 544 30 830 10 286 24 664 30 840 13 416 20 592 25 690 30 528 45 2098
25 2489 -17 335 -48 590 -90 758 -45 175 -167 364 -290 449 -67 47 -187 92
-317 119 -111 23 -337 35 -396 20z"/>
<path d="M32069 28217 c-3 -4 -122 -7 -265 -7 -142 -1 -342 -5 -444 -10 -102
-5 -252 -12 -335 -15 -233 -9 -706 -34 -745 -40 -19 -2 -64 -7 -100 -10 -403
-36 -538 -94 -621 -271 -54 -113 -113 -362 -145 -609 -24 -192 -30 -511 -10
-623 41 -233 166 -446 317 -539 87 -54 255 -71 776 -80 l363 -6 5 -31 c6 -41
32 -506 46 -816 27 -642 27 -1959 0 -2097 -19 -95 -185 -491 -299 -713 -95
-185 -112 -221 -159 -334 -25 -61 -55 -136 -68 -166 -45 -111 -249 -545 -483
-1030 -185 -385 -258 -558 -293 -702 -19 -78 -23 -120 -23 -258 0 -236 21
-359 79 -476 97 -194 372 -515 529 -618 192 -126 282 -129 497 -21 116 59 202
176 454 620 81 143 194 343 252 443 57 101 116 203 131 225 48 76 119 238 197
452 10 27 56 123 101 213 53 104 85 179 89 210 13 95 34 122 95 122 67 0 118
-46 154 -138 29 -72 172 -321 293 -505 152 -233 259 -410 301 -497 90 -187
436 -585 583 -669 64 -37 111 -40 190 -12 190 67 482 289 515 393 10 32 60
111 125 200 31 42 71 110 88 152 66 159 131 477 131 644 0 66 -4 86 -25 123
-43 75 -53 102 -60 159 -9 70 -32 124 -80 180 -48 57 -151 214 -294 448 -61
101 -150 240 -198 310 -47 70 -110 162 -140 205 -29 43 -56 90 -59 105 -9 39
-81 153 -212 337 -63 88 -127 187 -144 220 -16 33 -84 150 -150 260 -122 203
-143 240 -300 494 l-89 145 15 510 c9 281 18 594 20 696 23 819 38 1337 41
1346 3 9 213 37 370 49 33 2 92 7 130 10 39 3 170 10 293 15 238 10 321 24
403 66 167 84 277 294 336 634 20 122 28 421 14 565 -33 337 -143 630 -260
689 -25 13 -114 30 -216 41 -71 8 -1709 19 -1716 12z"/>
<path d="M20943 26449 c-13 -18 -193 -344 -308 -559 -145 -273 -159 -299 -235
-445 -40 -77 -98 -189 -130 -250 -32 -60 -119 -231 -195 -380 -76 -148 -175
-342 -220 -430 -45 -88 -138 -268 -205 -400 -68 -132 -145 -282 -171 -332 -46
-89 -48 -93 -29 -103 11 -6 102 -15 203 -20 249 -13 1056 -12 1137 0 193 31
259 127 280 408 11 143 -3 614 -35 1232 -8 157 -19 382 -25 500 -16 353 -41
743 -49 769 -5 19 -9 21 -18 10z"/>
<path d="M17680 23039 c-1095 -12 -1755 -26 -2280 -49 -261 -11 -738 -31
-1060 -45 -1563 -66 -1807 -86 -1948 -160 -58 -30 -72 -42 -99 -80 -20 -30
-61 -151 -84 -250 -37 -167 -48 -522 -23 -770 24 -249 37 -275 203 -418 l112
-97 57 0 c31 0 212 5 402 10 189 5 419 10 510 11 272 2 714 14 1925 54 94 4
314 13 490 20 176 8 426 19 555 25 129 6 348 17 485 25 138 9 324 20 415 25
91 6 192 12 225 15 33 3 173 14 310 26 138 11 295 24 350 29 55 5 210 19 345
30 709 59 849 73 1004 96 93 14 194 35 225 46 154 58 295 293 352 588 7 36 13
138 13 230 -1 143 -4 182 -28 290 -46 207 -78 257 -190 299 -166 62 -482 69
-2266 50z"/>
<path d="M23555 22531 c-43 -88 -76 -163 -72 -167 24 -24 532 -43 1153 -44
297 0 364 2 373 14 21 25 162 318 156 324 -17 17 -185 23 -825 28 l-705 6 -80
-161z"/>
<path d="M26520 22234 c-411 -10 -871 -31 -1875 -89 -236 -14 -511 -30 -610
-35 -99 -6 -211 -13 -250 -15 -145 -9 -428 -25 -645 -35 -124 -6 -259 -13
-300 -15 -142 -8 -496 -24 -750 -35 -670 -28 -927 -56 -1016 -111 -74 -45
-136 -179 -171 -364 -15 -85 -18 -151 -18 -435 1 -553 34 -698 178 -780 110
-62 209 -74 972 -116 171 -9 313 -20 317 -23 4 -4 -20 -51 -53 -106 -84 -138
-132 -225 -127 -230 2 -3 258 -9 569 -14 310 -6 650 -13 756 -17 l192 -6 54
83 c63 99 137 223 137 231 0 3 -66 6 -147 7 -307 4 -862 21 -968 31 -278 25
-293 41 -60 64 430 44 1345 82 1453 60 35 -7 37 -15 51 -178 13 -150 19 -243
36 -636 26 -577 39 -680 107 -814 69 -138 183 -274 265 -319 143 -77 412 -88
607 -25 212 69 473 233 521 328 35 70 108 592 150 1085 3 39 8 88 10 110 2 22
9 126 16 230 13 215 29 283 70 302 43 21 195 33 542 43 449 13 954 47 1502
100 110 11 250 24 310 30 195 18 305 59 384 145 101 110 149 289 172 640 27
413 -25 661 -165 793 -49 46 -56 50 -131 60 -137 20 -299 31 -597 42 -309 10
-1250 19 -1488 14z"/>
<path d="M10770 21211 c-25 -5 -101 -11 -170 -15 -462 -24 -906 -46 -1025 -51
-77 -3 -322 -14 -545 -25 -223 -11 -461 -22 -530 -24 -156 -7 -817 -39 -1475
-71 -275 -13 -552 -27 -615 -30 -269 -12 -1136 -61 -1260 -70 -631 -48 -697
-62 -900 -198 -258 -172 -294 -255 -319 -720 -26 -472 47 -736 255 -926 108
-99 147 -109 474 -122 438 -18 1094 0 1480 42 288 31 466 35 581 14 l96 -17 6
-986 c7 -1195 21 -1482 82 -1711 32 -118 64 -178 140 -259 182 -196 445 -266
760 -204 216 43 375 110 461 196 145 146 191 365 248 1196 14 195 28 402 31
460 3 58 12 229 21 380 8 151 19 437 22 635 7 337 9 363 28 400 38 72 135 102
384 119 396 28 1577 201 1887 277 347 85 442 179 533 526 30 114 43 325 30
480 -20 236 -71 377 -182 498 -140 153 -337 234 -498 206z"/>
<path d="M18136 21043 c-19 -37 -86 -162 -150 -277 -64 -115 -116 -212 -116
-215 0 -4 39 -51 87 -106 47 -55 229 -278 403 -495 315 -392 424 -520 441
-520 13 0 64 83 181 296 114 206 139 253 461 874 47 91 122 234 166 319 44 85
79 156 78 157 -1 2 -223 7 -492 13 -270 6 -610 13 -757 16 l-267 6 -35 -68z"/>
<path d="M16220 20814 c-448 -36 -875 -146 -1202 -309 -240 -120 -406 -243
-633 -470 -390 -389 -570 -689 -765 -1275 -121 -362 -145 -472 -156 -724 -7
-133 9 -587 27 -816 31 -395 121 -704 319 -1102 92 -183 257 -395 495 -633
159 -160 259 -239 327 -259 54 -17 82 -34 158 -95 214 -173 784 -310 1291
-311 271 0 581 49 952 152 129 35 181 57 233 99 39 31 63 46 277 171 268 157
498 337 538 423 11 23 63 88 115 146 107 116 226 288 303 439 60 116 77 160
96 250 8 36 37 119 65 184 77 182 125 373 189 756 65 391 63 544 -15 1030 -78
488 -176 787 -358 1090 -49 82 -145 212 -302 410 -41 52 -109 146 -151 208
-96 143 -155 192 -354 294 -361 185 -747 298 -1129 332 -93 8 -273 14 -320 10z
m175 -1686 c330 -68 533 -226 703 -548 98 -186 116 -314 110 -796 -6 -395 -10
-421 -104 -614 -135 -279 -219 -401 -318 -463 -64 -41 -239 -122 -295 -137
-295 -79 -674 -37 -907 101 -32 19 -95 70 -139 114 -67 66 -90 98 -132 180
-145 287 -233 590 -233 804 0 85 20 258 40 344 100 434 353 801 651 942 78 37
243 82 344 95 78 10 157 4 280 -22z"/>
<path d="M22500 19660 c-108 -10 -235 -40 -334 -79 -261 -104 -330 -183 -395
-450 -47 -191 -58 -420 -42 -882 7 -203 14 -390 16 -416 2 -26 6 -93 10 -148
3 -55 8 -127 10 -160 3 -33 12 -168 20 -300 8 -132 17 -256 20 -275 2 -19 7
-71 10 -115 14 -192 26 -314 36 -365 50 -252 150 -451 304 -602 63 -62 119
-89 235 -113 244 -51 956 -46 2190 15 223 11 506 24 630 30 124 6 259 13 300
15 112 7 389 23 610 35 181 10 400 24 530 35 30 3 145 12 255 20 515 40 899
103 1003 167 40 25 61 70 103 218 87 311 100 634 39 955 -37 188 -102 320
-179 359 -94 49 -528 69 -1826 86 -1167 15 -2276 41 -2360 56 -50 9 -73 34
-91 99 -13 50 -17 148 -24 605 -9 568 -18 732 -50 856 -34 132 -117 226 -248
279 -171 70 -487 100 -772 75z"/>
<path d="M21513 18548 c-6 -7 -45 -80 -88 -163 -43 -82 -95 -181 -115 -220
-21 -38 -70 -133 -110 -210 -40 -77 -85 -162 -100 -190 -15 -27 -71 -135 -125
-240 -54 -104 -114 -221 -135 -260 -21 -38 -75 -142 -120 -230 -45 -88 -111
-214 -145 -280 -34 -66 -99 -190 -143 -275 -234 -454 -706 -1368 -784 -1520
-198 -384 -262 -507 -418 -810 -89 -173 -201 -389 -248 -480 -46 -91 -113
-219 -147 -285 -34 -66 -115 -223 -180 -350 -65 -126 -121 -233 -124 -237 -3
-4 -56 40 -116 98 -195 188 -336 301 -547 442 -475 318 -952 513 -1483 607
-266 47 -306 56 -312 73 -7 18 21 86 113 278 123 257 142 315 108 328 -38 15
-173 27 -393 37 -328 14 -543 39 -765 91 -116 27 -191 22 -240 -15 -57 -44
-128 -164 -288 -487 -191 -386 -211 -430 -278 -625 -43 -126 -78 -267 -109
-440 -12 -66 -39 -221 -62 -345 -71 -397 -88 -494 -244 -1410 -292 -1713 -687
-4078 -736 -4405 -23 -155 -23 -207 -4 -300 42 -199 207 -386 415 -471 130
-53 285 -67 422 -39 118 25 198 70 338 196 142 127 738 681 1000 930 96 91
308 291 470 444 162 153 390 369 505 480 116 111 323 309 460 440 296 283 403
386 624 601 92 88 303 292 471 454 453 437 1090 1077 1219 1225 130 148 172
209 221 315 39 85 489 981 615 1225 45 88 125 243 178 345 52 102 194 376 314
610 383 740 441 855 674 1320 301 604 443 900 495 1038 22 56 23 71 15 120
-18 102 -30 338 -46 847 -13 446 -31 1239 -37 1618 -1 75 -3 137 -4 137 -1 0
-6 -6 -11 -12z m-5448 -5948 c266 -35 478 -97 690 -201 267 -130 397 -222 609
-429 195 -191 346 -374 346 -421 0 -38 -1854 -1843 -2600 -2533 -156 -144
-216 -193 -218 -181 -5 24 8 112 98 675 35 214 337 2025 370 2215 17 99 42
241 55 315 96 556 92 541 129 559 73 35 267 35 521 1z"/>
</g>
</svg>
