<?xml version="1.0" standalone="no"?>
<!DOCTYPE svg PUBLIC "-//W3C//DTD SVG 20010904//EN"
 "http://www.w3.org/TR/2001/REC-SVG-20010904/DTD/svg10.dtd">
<svg version="1.0" xmlns="http://www.w3.org/2000/svg"
 width="1041.000000pt" height="1027.000000pt" viewBox="0 0 1041.000000 1027.000000"
 preserveAspectRatio="xMidYMid meet">

<g transform="translate(0.000000,1027.000000) scale(0.100000,-0.100000)"
fill="#000000" stroke="none">
<path d="M7165 9363 c-114 -8 -365 -45 -497 -74 -429 -93 -729 -219 -1232
-512 l-198 -116 -132 73 c-594 331 -858 431 -1402 530 -279 51 -406 66 -614
73 -410 13 -859 -59 -1270 -203 -182 -65 -484 -211 -728 -353 -94 -56 -179
-101 -187 -101 -33 0 -96 -42 -122 -82 l-28 -42 -3 -522 -3 -523 -59 -100
c-233 -392 -379 -836 -429 -1303 -14 -125 -14 -496 -1 -629 47 -463 214 -964
441 -1324 l44 -70 5 -1571 5 -1570 28 -42 c38 -59 94 -85 168 -80 46 3 66 11
96 34 64 51 418 256 598 347 426 213 988 333 1467 313 333 -13 858 -112 1127
-213 194 -72 490 -221 845 -425 105 -60 209 -114 231 -120 54 -14 115 3 163
46 45 40 386 238 567 329 573 288 1225 388 1865 286 338 -54 590 -116 798
-195 115 -44 411 -192 632 -315 91 -50 189 -104 218 -120 28 -16 69 -40 90
-53 40 -25 218 -116 227 -116 3 0 4 1774 3 3943 l-3 3943 -25 38 c-29 43 -91
82 -415 259 -534 293 -772 384 -1245 476 -408 79 -721 105 -1025 84z m591
-389 c145 -19 470 -78 579 -105 312 -78 541 -178 1012 -441 l163 -91 0 -130 0
-129 -62 35 c-114 63 -421 214 -520 255 -259 108 -663 205 -1070 257 -581 75
-1255 -29 -1823 -282 -99 -44 -369 -188 -411 -219 l-32 -23 -18 21 c-11 12
-59 55 -109 96 -49 41 -91 79 -93 83 -2 4 5 13 15 19 407 243 734 413 918 479
298 106 615 173 915 195 104 7 417 -4 536 -20z m-4617 -13 c15 -4 -17 -11 -91
-19 -418 -44 -892 -205 -1258 -427 -206 -125 -401 -274 -575 -439 -49 -47 -91
-86 -92 -86 -2 0 -3 85 -3 188 l0 188 153 89 c388 227 640 336 959 414 208 51
365 76 593 94 75 6 290 5 314 -2z m436 -371 c524 -36 974 -186 1395 -465 174
-116 274 -198 425 -349 442 -444 707 -972 801 -1601 34 -228 29 -597 -12 -845
-144 -868 -703 -1633 -1484 -2030 -397 -201 -766 -295 -1210 -307 -486 -13
-909 84 -1352 308 -699 355 -1226 1009 -1427 1769 -64 245 -91 457 -91 725 0
746 284 1436 810 1966 522 527 1180 808 1960 837 19 1 103 -3 185 -8z m4281
-340 c202 -29 516 -92 668 -135 218 -61 422 -152 802 -358 88 -48 166 -87 172
-87 9 0 12 -128 11 -527 0 -420 -3 -520 -12 -490 -23 72 -58 102 -210 176
-230 112 -386 170 -607 226 -303 76 -638 130 -895 146 -403 25 -890 -43 -1299
-181 -66 -22 -121 -38 -123 -37 -1 2 -23 50 -48 107 -25 58 -63 137 -85 178
l-40 73 78 35 c441 204 990 311 1454 284 182 -11 255 -21 503 -66 393 -71 601
-139 924 -298 129 -63 168 -69 239 -35 107 52 134 202 50 288 -78 79 -483 253
-768 330 -175 47 -582 121 -780 142 -163 18 -515 15 -685 -5 -404 -49 -843
-174 -1145 -326 -34 -17 -65 -30 -70 -28 -11 4 -130 156 -130 166 0 10 239
138 337 181 317 138 700 234 1043 261 159 13 447 3 616 -20z m89 -1435 c159
-19 478 -78 624 -115 212 -54 346 -104 571 -214 148 -73 184 -79 256 -47 47
21 88 70 102 121 7 24 10 -286 11 -973 l1 -1007 -142 71 c-350 175 -562 247
-953 323 -526 101 -871 117 -1281 56 -203 -30 -517 -103 -638 -150 -16 -6 -30
-9 -32 -7 -2 2 9 55 26 118 52 196 92 468 103 694 l2 50 95 28 c142 42 332 84
487 109 117 19 181 22 413 22 296 1 336 -3 655 -60 231 -42 403 -84 551 -135
103 -35 335 -137 429 -187 144 -78 309 56 266 215 -16 60 -69 102 -226 177
-287 138 -480 201 -830 271 -370 74 -471 86 -752 92 -364 8 -606 -19 -943
-105 -85 -22 -158 -38 -162 -35 -5 2 -8 19 -8 36 0 41 -44 290 -68 385 -22 86
-34 74 123 126 263 86 554 141 845 160 94 6 349 -4 475 -19z m-125 -2130 c133
-7 303 -31 550 -81 355 -70 529 -132 879 -310 123 -63 232 -114 242 -114 18 0
19 -12 19 -300 0 -165 -2 -300 -3 -300 -2 0 -45 22 -96 50 -392 213 -713 313
-1300 405 -297 47 -625 54 -921 19 -44 -6 -51 -2 -380 200 -184 114 -336 210
-338 215 -6 16 264 103 457 146 235 53 563 89 726 79 28 -2 102 -6 165 -9z
m-1400 -627 c113 -69 482 -295 820 -503 338 -208 834 -512 1102 -677 l487
-299 -93 -152 c-289 -473 -348 -567 -357 -567 -5 0 -377 226 -827 502 -449
276 -1044 641 -1322 811 -277 170 -522 321 -543 334 l-39 25 74 76 c146 151
308 363 410 535 38 64 42 67 62 54 11 -8 113 -70 226 -139z m1516 -373 c155
-19 426 -68 584 -106 238 -56 376 -108 648 -243 190 -94 216 -100 291 -66 24
11 45 20 47 20 2 0 4 -261 4 -580 l0 -579 -187 96 c-104 53 -192 99 -197 104
-4 4 24 60 65 125 60 97 73 127 77 169 5 57 -18 113 -60 151 -26 23 -39 32
-883 549 -330 202 -602 369 -604 371 -9 9 102 3 215 -11z m-6695 -199 c127
-122 237 -211 366 -299 51 -34 92 -65 93 -69 0 -3 -73 -44 -162 -91 -90 -46
-203 -107 -251 -136 -80 -47 -91 -58 -113 -104 -27 -58 -28 -75 -13 -130 23
-82 116 -145 199 -134 24 3 97 37 182 85 252 141 538 272 595 272 10 0 56 -16
101 -35 225 -94 557 -177 842 -210 155 -17 479 -20 631 -5 222 22 541 89 714
150 l60 21 230 -115 c127 -64 278 -143 338 -176 l107 -61 0 -589 c0 -325 -3
-590 -7 -590 -5 0 -21 8 -38 18 -87 53 -414 221 -548 281 -303 136 -661 228
-1157 297 -176 25 -622 25 -805 0 -508 -68 -906 -202 -1359 -455 -60 -34 -113
-61 -118 -61 -4 0 -8 504 -8 1120 0 616 3 1120 6 1120 4 0 55 -47 115 -104z
m4814 -641 c275 -169 501 -308 502 -309 2 -1 -68 -26 -155 -54 -200 -67 -357
-136 -562 -247 -169 -91 -221 -129 -246 -176 -16 -32 -19 -151 -4 -179 5 -10
36 -33 67 -51 96 -55 127 -50 317 56 199 111 361 184 546 245 143 48 433 120
481 120 19 0 669 -388 702 -420 5 -4 -76 -5 -180 -3 -309 9 -616 -25 -932
-102 -338 -83 -613 -194 -930 -374 -68 -39 -126 -71 -128 -71 -1 0 -3 423 -3
941 0 749 3 940 13 936 6 -2 237 -143 512 -312z m-895 160 c0 -69 -2 -125 -4
-125 -11 0 -216 112 -216 118 1 7 199 129 213 131 4 1 7 -55 7 -124z m3970
-1097 c96 -49 221 -115 277 -146 l103 -57 0 -227 c0 -126 -4 -228 -9 -228 -5
0 -46 21 -92 46 -168 94 -480 242 -600 287 -68 25 -123 48 -122 51 1 4 53 90
115 191 97 158 116 184 133 179 11 -3 99 -46 195 -96z"/>
<path d="M3195 8279 c-306 -29 -594 -110 -881 -250 -247 -120 -462 -276 -669
-483 -670 -673 -896 -1668 -585 -2571 217 -627 663 -1130 1265 -1426 701 -343
1509 -341 2206 8 497 248 884 636 1124 1128 124 253 194 476 236 750 26 166
31 491 11 645 -62 472 -250 918 -539 1280 -92 116 -267 289 -388 386 -501 397
-1149 592 -1780 533z m595 -318 c985 -174 1723 -971 1819 -1965 88 -900 -400
-1775 -1214 -2175 -323 -159 -607 -225 -975 -225 -147 0 -237 5 -320 18 -890
138 -1599 782 -1814 1645 -51 204 -61 291 -60 536 0 176 4 253 18 330 46 257
98 421 201 630 216 443 544 776 982 998 246 124 485 195 783 231 19 2 132 3
250 1 161 -2 244 -8 330 -24z"/>
<path d="M3635 6660 c-66 -10 -92 -26 -117 -75 -22 -43 -22 -88 3 -460 28
-428 32 -457 66 -496 8 -10 52 -24 104 -34 82 -16 109 -17 272 -6 327 21 600
54 633 75 27 18 48 94 40 141 -4 19 -18 47 -31 62 -27 32 -14 32 -300 13 -159
-10 -404 -14 -411 -7 -1 1 -5 97 -8 212 -14 470 -15 493 -43 525 -15 19 -44
35 -76 45 -55 16 -57 16 -132 5z"/>
<path d="M4800 6648 c-34 -17 -48 -32 -56 -58 l-12 -35 -183 -8 c-204 -8 -279
-19 -303 -45 -24 -28 -32 -122 -12 -159 26 -50 64 -58 291 -58 l200 0 0 -34
c0 -40 20 -36 -249 -45 -235 -8 -253 -18 -255 -143 -1 -41 4 -58 23 -80 l24
-28 224 -1 c123 0 229 -4 236 -8 8 -5 12 -42 12 -119 0 -137 11 -179 53 -209
25 -18 44 -22 102 -22 90 0 149 33 164 91 12 47 17 250 14 617 -1 257 -3 281
-20 305 -47 63 -168 82 -253 39z"/>
<path d="M2612 6618 c-77 -37 -76 -33 -80 -372 -2 -166 1 -493 6 -727 9 -392
11 -429 30 -471 22 -51 30 -57 79 -68 68 -16 147 25 156 82 3 18 13 182 22
363 9 182 18 336 20 343 3 8 26 12 70 12 45 0 65 -4 65 -12 0 -7 2 -172 6
-366 6 -400 7 -408 75 -443 77 -39 156 -4 178 77 15 62 40 311 53 544 17 309
15 973 -3 1006 -21 39 -59 54 -141 54 -66 0 -77 -3 -105 -27 l-32 -28 -10
-244 c-7 -186 -12 -246 -22 -252 -17 -11 -100 -11 -115 -1 -8 5 -14 86 -19
249 -8 272 -8 270 -90 292 -58 16 -94 13 -143 -11z"/>
<path d="M1875 6568 c-192 -9 -240 -17 -277 -47 -21 -17 -23 -27 -23 -103 0
-96 19 -141 68 -158 17 -5 119 -10 232 -10 l202 0 7 -505 c4 -278 11 -516 16
-529 18 -48 49 -66 112 -66 68 0 119 21 142 61 19 32 31 149 41 399 4 91 9
181 10 200 2 19 6 185 11 368 l7 332 -23 25 c-43 46 -138 52 -525 33z"/>
<path d="M4525 5535 c-159 -8 -370 -18 -468 -22 -175 -9 -177 -9 -205 -36
l-27 -28 2 -142 c3 -177 21 -431 34 -477 22 -81 47 -89 294 -89 241 -1 744 18
786 29 57 16 66 53 79 316 16 341 14 410 -10 434 -15 15 -33 20 -72 20 -29 0
-69 2 -88 4 -19 2 -165 -2 -325 -9z m183 -270 c9 -8 2 -239 -8 -249 -7 -7
-102 -12 -274 -14 l-263 -4 -6 33 c-3 19 -9 75 -13 126 l-6 91 53 7 c132 16
501 23 517 10z"/>
</g>
</svg>
