<?xml version="1.0" standalone="no"?>
<!DOCTYPE svg PUBLIC "-//W3C//DTD SVG 20010904//EN"
 "http://www.w3.org/TR/2001/REC-SVG-20010904/DTD/svg10.dtd">
<svg version="1.0" xmlns="http://www.w3.org/2000/svg"
 width="1024.000000pt" height="1024.000000pt" viewBox="0 0 1024.000000 1024.000000"
 preserveAspectRatio="xMidYMid meet">

<g transform="translate(0.000000,1024.000000) scale(0.100000,-0.100000)"
fill="#000000" stroke="none">
<path d="M3700 9624 c-352 -53 -679 -219 -930 -473 -246 -248 -404 -553 -467
-901 -26 -146 -24 -431 5 -576 42 -213 115 -401 222 -575 33 -54 60 -100 60
-103 0 -2 -62 -87 -138 -188 -243 -322 -374 -533 -501 -806 -235 -506 -376
-1027 -420 -1552 -37 -424 -39 -983 -6 -1220 32 -233 68 -443 130 -750 35
-173 66 -337 69 -364 10 -84 67 -158 143 -187 19 -7 289 -10 818 -9 l790 1 39
-213 c51 -280 119 -586 139 -623 17 -34 60 -76 97 -96 21 -12 375 -14 2173
-17 1451 -1 2154 1 2167 8 27 15 76 124 90 200 6 36 31 160 55 275 80 385 137
739 156 970 13 165 7 636 -11 885 -40 543 -137 978 -327 1454 -168 424 -321
683 -674 1144 l-157 204 58 76 c155 207 276 470 328 713 36 166 45 280 39 473
-9 280 -59 486 -177 733 -169 354 -437 642 -755 812 -195 105 -268 137 -400
174 -344 99 -680 102 -1012 10 l-93 -25 -98 93 c-137 130 -263 218 -427 298
-189 93 -304 129 -497 156 -128 18 -363 18 -488 -1z m456 -429 c121 -21 213
-49 311 -95 89 -41 223 -127 287 -182 l38 -34 -93 -69 c-117 -86 -280 -243
-369 -355 -275 -347 -415 -778 -397 -1229 6 -157 26 -290 62 -413 l22 -78 -92
0 c-509 0 -986 351 -1149 843 -47 144 -61 231 -61 392 1 167 16 259 66 403
154 436 504 732 964 817 98 18 305 18 411 0z m1834 -580 c158 -24 259 -58 407
-135 76 -40 156 -86 178 -103 233 -181 392 -402 474 -660 46 -143 64 -263 64
-412 0 -344 -125 -658 -360 -905 -197 -207 -430 -335 -723 -397 -117 -24 -362
-24 -480 1 -280 60 -501 177 -694 370 -243 242 -369 529 -383 877 -9 235 27
419 122 617 73 152 131 236 238 349 115 119 215 195 353 265 150 77 294 122
449 141 76 10 269 5 355 -8z m-3026 -1984 c202 -153 477 -267 740 -306 105
-15 357 -19 451 -7 l50 7 49 -70 c56 -81 114 -153 168 -210 l38 -41 -101 -132
-100 -132 -31 16 c-60 31 -221 65 -335 71 -516 27 -961 -299 -1094 -802 -30
-113 -37 -329 -15 -449 34 -177 130 -385 228 -492 20 -22 125 -119 233 -215
l197 -174 -6 -70 c-4 -38 -11 -119 -16 -180 -30 -357 -34 -626 -16 -1055 l1
-35 -642 -3 c-354 -1 -643 0 -643 2 0 2 -20 101 -45 220 -47 226 -92 484 -122
696 -32 226 -22 914 18 1260 73 635 317 1299 657 1790 72 104 262 360 268 360
1 0 32 -22 68 -49z m4048 -952 c248 -316 390 -534 513 -784 223 -453 359 -930
409 -1435 41 -405 45 -922 11 -1170 -35 -251 -145 -856 -161 -882 -8 -12
-3762 -10 -3769 2 -19 30 -153 770 -177 975 -14 123 -15 709 -1 858 l8 89 260
-234 c926 -830 929 -833 1013 -881 45 -26 124 -62 175 -79 78 -26 111 -32 217
-35 89 -4 146 -1 196 10 252 54 453 211 564 442 50 103 69 177 77 297 11 168
-27 320 -119 480 -42 73 -70 100 -659 627 -387 347 -639 567 -682 593 -115 69
-186 91 -307 92 -78 1 -119 -4 -160 -18 -97 -33 -173 -79 -241 -147 -147 -146
-200 -368 -135 -562 35 -104 73 -162 153 -232 37 -33 289 -259 560 -502 271
-243 503 -447 514 -454 36 -19 112 -15 150 7 70 41 101 136 67 210 -10 22
-527 492 -1034 942 -91 81 -114 121 -114 203 0 61 17 103 61 154 45 50 100 75
172 75 103 0 139 -25 460 -313 116 -105 361 -324 542 -486 182 -163 338 -305
348 -316 9 -11 33 -52 53 -91 94 -187 59 -400 -91 -550 -123 -124 -294 -172
-460 -129 -124 33 -174 71 -604 455 -1159 1037 -1542 1383 -1576 1422 -53 62
-122 210 -140 300 -32 165 -12 326 60 473 78 160 187 270 340 346 119 58 189
74 330 73 144 0 214 -17 336 -80 109 -56 101 -50 999 -855 206 -185 602 -540
880 -789 278 -249 519 -459 537 -466 127 -54 259 77 207 205 -17 44 -123 140
-1854 1690 -162 145 -301 269 -309 276 -11 11 1 32 74 129 48 64 89 116 91
116 1 0 31 -16 65 -36 364 -214 831 -295 1258 -219 250 44 521 153 706 284 39
27 75 48 80 47 6 -1 54 -58 107 -127z"/>
</g>
</svg>
