<?xml version="1.0" standalone="no"?>
<!DOCTYPE svg PUBLIC "-//W3C//DTD SVG 20010904//EN"
 "http://www.w3.org/TR/2001/REC-SVG-20010904/DTD/svg10.dtd">
<svg version="1.0" xmlns="http://www.w3.org/2000/svg"
 width="4200.000000pt" height="3987.000000pt" viewBox="0 0 4200.000000 3987.000000"
 preserveAspectRatio="xMidYMid meet">

<g transform="translate(0.000000,3987.000000) scale(0.100000,-0.100000)"
fill="#000000" stroke="none">
<path d="M12610 36900 c-443 -4 -1042 -8 -1331 -9 l-527 -1 -148 -187 c-82
-104 -257 -325 -389 -493 -527 -666 -867 -1113 -981 -1290 -69 -107 -343 -485
-984 -1355 -255 -346 -503 -684 -552 -750 -93 -127 -435 -591 -803 -1089 -121
-163 -249 -337 -285 -386 -36 -49 -146 -198 -245 -332 -99 -134 -460 -623
-804 -1088 -343 -465 -677 -917 -742 -1005 -252 -340 -458 -618 -549 -742
-103 -139 -295 -399 -454 -613 -55 -74 -311 -420 -569 -769 -258 -349 -528
-713 -600 -810 -72 -97 -167 -225 -212 -286 -45 -60 -235 -316 -423 -567
l-342 -457 0 -974 0 -974 335 -6 c184 -3 796 -3 1360 0 877 5 1025 4 1029 -8
3 -8 8 -4201 11 -9319 5 -8650 9 -10298 27 -10315 27 -27 330 -42 1143 -55
935 -16 13071 -31 22610 -28 l8910 3 5 9860 5 9860 1613 3 1612 2 0 958 0 959
-200 269 c-110 148 -319 429 -464 624 -336 452 -621 835 -1253 1690 -279 377
-588 793 -685 925 -276 372 -381 514 -873 1180 -252 341 -495 670 -540 730
-97 132 -699 947 -1210 1640 -202 275 -403 547 -446 605 -94 127 -413 561
-584 795 -69 94 -267 364 -441 600 -174 237 -372 507 -440 600 -140 192 -511
701 -618 847 -396 540 -598 814 -810 1103 -137 187 -269 367 -292 400 -24 33
-74 101 -111 150 l-68 90 -7580 7 c-4169 3 -8192 8 -8940 11 -748 2 -1722 1
-2165 -3z m1852 -5105 c3 -1705 9 -3122 11 -3150 3 -27 8 -111 12 -185 13
-279 54 -487 117 -601 41 -73 230 -266 343 -352 195 -146 457 -233 715 -236
413 -6 769 166 1022 494 143 184 181 303 214 677 30 347 35 786 41 3606 l5
2852 3739 0 3738 0 4 -2972 c4 -3017 6 -3179 42 -3487 40 -345 85 -458 258
-650 230 -256 458 -376 784 -412 313 -34 612 32 838 184 72 49 301 270 357
345 99 133 141 317 170 742 8 124 13 1055 17 3210 l6 3035 1697 3 1697 2 39
-52 c159 -217 759 -1032 952 -1293 129 -176 264 -358 298 -405 34 -47 168
-229 298 -405 276 -375 270 -367 670 -910 170 -231 344 -467 387 -525 142
-194 879 -1194 1267 -1720 776 -1051 1160 -1572 1295 -1755 61 -82 291 -393
510 -690 219 -297 442 -598 495 -670 220 -298 910 -1233 970 -1315 36 -49 121
-164 188 -255 68 -92 121 -169 117 -173 -18 -18 -33532 -28 -33550 -10 -9 9 5
29 485 691 24 34 241 331 482 659 566 772 1225 1667 2472 3356 50 68 152 206
226 306 74 100 209 283 300 405 91 123 247 334 348 470 100 135 235 318 300
406 66 88 182 246 259 350 78 105 183 247 235 317 51 69 210 285 353 478 143
194 328 443 410 555 83 112 382 517 665 901 483 655 578 784 772 1047 42 57
96 134 119 170 l41 67 1382 -2 1381 -3 7 -3100z m-4710 -17120 c4 -4422 11
-8398 16 -8835 6 -579 5 -798 -3 -808 -6 -7 -36 -17 -66 -22 -95 -18 -929 -29
-2141 -29 l-1178 -1 0 8863 c0 4875 3 8867 7 8870 3 4 761 6 1682 5 l1676 -3
7 -8040z m19913 -825 l0 -8865 -1930 0 -1930 0 -6 5045 c-7 5964 -5 5829 -93
6015 -109 230 -290 422 -492 521 -109 53 -200 69 -494 84 -430 22 -3846 34
-6160 21 -2165 -11 -2703 -19 -2959 -41 -113 -10 -131 -15 -204 -51 -133 -65
-215 -127 -359 -268 l-138 -134 0 -5599 0 -5598 -1582 2 -1583 3 -3 8855 c-1
4870 0 8861 3 8868 3 10 1802 12 8967 10 l8963 -3 0 -8865z m5453 -2 l2 -8868
-1735 0 -1735 0 0 8863 c0 4875 3 8867 7 8870 3 4 783 6 1732 5 l1726 -3 3
-8867z m-11298 -4013 l0 -4855 -3465 0 -3465 0 0 4855 0 4855 3465 0 3465 0 0
-4855z"/>
<path d="M21570 11110 c-260 -27 -409 -107 -646 -344 -266 -267 -346 -466
-346 -856 0 -293 48 -477 175 -665 244 -363 618 -568 1037 -568 434 0 823 229
1067 628 62 101 105 203 140 330 25 91 28 115 27 265 -1 152 -3 175 -32 283
-61 231 -187 443 -368 617 -184 177 -334 264 -514 296 -101 18 -419 26 -540
14z"/>
</g>
</svg>
